<svg xmlns="http://www.w3.org/2000/svg" xmlns:xlink="http://www.w3.org/1999/xlink" viewBox="0 0 879.41 639.09"><defs><style>.cls-1{isolation:isolate;}.cls-2,.cls-5{fill:#eaeaea;}.cls-3{fill:url(#linear-gradient);}.cls-4{fill:#fff;}.cls-5{mix-blend-mode:multiply;}.cls-6{fill:url(#linear-gradient-2);}.cls-7{fill:url(#linear-gradient-3);}.cls-8{fill:url(#linear-gradient-4);}</style><linearGradient id="linear-gradient" x1="273.28" y1="47.93" x2="263.61" y2="937.54" gradientUnits="userSpaceOnUse"><stop offset="0" stop-color="#5028c7"/><stop offset="0.87" stop-color="#6448d8"/></linearGradient><linearGradient id="linear-gradient-2" x1="474.99" y1="42.47" x2="470.15" y2="881.31" xlink:href="#linear-gradient"/><linearGradient id="linear-gradient-3" x1="660.25" y1="-36.63" x2="667.5" y2="939.99" xlink:href="#linear-gradient"/><linearGradient id="linear-gradient-4" x1="841.75" y1="46.69" x2="839.33" y2="941.13" xlink:href="#linear-gradient"/></defs><g class="cls-1"><g id="Layer_1" data-name="Layer 1"><path class="cls-2" d="M364.42,478.75c9.54-29.17,14.37-55.59,14.37-78.54v-4.08c0-31.71-5.22-58.58-15.51-79.85s-26.06-37.74-46.66-48.53-46.41-16.16-77.07-16.16-56.68,6.14-77.19,18.26-36.2,30.56-46.4,54.68c-10.12,24-15.39,54.35-15.66,90.34v13.8h96v-13.8c0-24.12,3.91-42.24,11.62-53.87S227.08,344,243.21,344c13.46,0,23.17,4.09,29.67,12.51s9.89,21.7,9.89,39.27v4.07c0,18.92-4.34,41.13-12.9,66s-22,53.23-39.74,83.9l-126.26,222-.31.55v82.45H378V763.58H220.33L321.48,575.66C340.46,540.42,354.91,507.81,364.42,478.75Z" transform="translate(-100.3 -220.45)"/><path class="cls-3" d="M134,744.81l126.26-222q26.9-46.44,39.92-84.31t13-66.8v-4.07q0-27.28-10.39-40.73t-31.57-13.45Q246,313.47,234,331.6t-12,55.19V398.2H130.77V386.79q.4-53.76,15.48-89.41t45.41-53.56q30.35-17.91,76-17.92t76,15.89q30.33,15.89,45.62,47.45t15.27,78.81v4.08q0,34.2-14.25,77.79t-42.77,96.53l-103,191.44H403.66v86.34H134Z" transform="translate(-100.3 -220.45)"/><path class="cls-4" d="M406.06,826.63H131.64V744.18l.31-.55,126.27-222C276,491,289.34,462.75,298,437.74s12.9-47.11,12.9-66v-4.07c0-17.57-3.32-30.78-9.88-39.27s-16.22-12.51-29.68-12.51c-16.13,0-27.67,5.57-35.27,17.05s-11.62,29.75-11.62,53.87v13.8h-96v-13.8c.27-36,5.54-66.38,15.67-90.34,10.19-24.12,25.8-42.52,46.4-54.69s46.47-18.25,77.18-18.25,56.59,5.44,77.07,16.16,36.3,27.11,46.67,48.53,15.5,48.14,15.5,79.85v4.08c0,22.95-4.83,49.37-14.37,78.53s-24,61.67-42.93,96.93L248.42,735.5H406.06Zm-269.64-4.78H401.28V740.28H240.41l104.94-195c18.85-35,33.18-67.35,42.6-96.14s14.14-54.61,14.14-77.05v-4.08c0-31-5.06-57.15-15-77.77-9.9-20.47-24.9-36.07-44.57-46.37s-45-15.62-74.85-15.62-55,5.92-74.75,17.59-34.64,29.28-44.43,52.44c-9.88,23.37-15,53.14-15.29,88.49v9h86.45v-9c0-25.08,4.18-44.09,12.42-56.51,8.44-12.74,21.65-19.2,39.26-19.2,14.83,0,26.09,4.84,33.46,14.37,7.22,9.35,10.89,23.54,10.89,42.2v4.07c0,19.45-4.43,42.18-13.17,67.58s-22.2,53.81-40.11,84.73L136.42,745.44Z" transform="translate(-100.3 -220.45)"/><path class="cls-5" d="M545.22,285.51c-24-24.54-58-37-101.09-37S367,261,343,285.51s-36.11,59.61-36.11,104.31V716.48c0,44.71,12.15,79.8,36.11,104.32s58,37,101.1,37,77.11-12.44,101.09-37,36.12-59.62,36.12-104.32V389.82C581.34,345.13,569.19,310,545.22,285.51ZM401.31,390.23c0-16.17,3.85-28.8,11.43-37.54s18.06-13,31.39-13,23.88,4.38,31.38,13S487,374.07,487,390.23V716.08c0,16.17-3.79,28.8-11.24,37.55s-17.81,13-31.58,13-24.12-4.26-31.59-13-11.23-21.37-11.23-37.55Z" transform="translate(-100.3 -220.45)"/><path class="cls-6" d="M372.82,791q-35.43-36.25-35.43-102.64V361.74q0-66.39,35.43-102.64t99.39-36.25q63.93,0,99.38,36.25T607,361.74V688.4q0,66.4-35.43,102.64t-99.38,36.25Q408.25,827.29,372.82,791ZM505.61,727.1q11.8-13.85,11.81-39.11V362.15q0-25.26-12-39.11T472.21,309.2Q451,309.2,439,323t-12,39.11V688q0,25.26,11.82,39.11T472.21,741Q493.78,741,505.61,727.1Z" transform="translate(-100.3 -220.45)"/><path class="cls-4" d="M472.21,829.69c-43.1,0-77.11-12.44-101.1-37S335,733.1,335,688.4V361.74c0-44.7,12.15-79.79,36.11-104.32s58-37,101.1-37,77.11,12.44,101.09,37S609.42,317,609.42,361.74V688.4c0,44.7-12.16,79.8-36.12,104.31S515.31,829.69,472.21,829.69Zm0-604.45c-41.76,0-74.62,11.95-97.68,35.53s-34.75,57.57-34.75,101V688.4c0,43.41,11.69,77.39,34.75,101h0c23.05,23.58,55.91,35.54,97.68,35.54s74.62-12,97.67-35.54,34.76-57.56,34.76-101V361.74c0-43.4-11.7-77.37-34.76-101S514,225.24,472.21,225.24Zm0,518.1c-15.06,0-26.91-4.94-35.22-14.69S424.6,705.35,424.6,688V362.15c0-17.35,4.24-31,12.6-40.67s20.23-14.68,35-14.68,26.54,4.94,35,14.68,12.6,23.32,12.6,40.67V688c0,17.35-4.17,31-12.38,40.66h0C499.11,738.4,487.26,743.34,472.21,743.34Zm0-431.75c-13.34,0-23.89,4.38-31.4,13S429.39,346,429.39,362.15V688c0,16.19,3.78,28.82,11.24,37.56s17.79,13,31.58,13,24.11-4.26,31.57-13S515,704.17,515,688V362.15c0-16.16-3.84-28.79-11.43-37.54S485.53,311.59,472.21,311.59Z" transform="translate(-100.3 -220.45)"/><path class="cls-5" d="M760.15,478.74c9.54-29.16,14.38-55.58,14.38-78.53v-4.08c0-31.71-5.22-58.58-15.52-79.85S733,278.54,712.35,267.75s-46.41-16.16-77.07-16.16-56.67,6.14-77.18,18.25-36.21,30.57-46.4,54.69c-10.13,24-15.4,54.35-15.67,90.34v13.79h96V414.87c0-24.12,3.91-42.24,11.62-53.87C611.28,349.53,622.82,344,639,344c13.46,0,23.17,4.09,29.67,12.51s9.88,21.7,9.88,39.26v4.08c0,18.92-4.34,41.13-12.9,66s-22,53.24-39.73,83.9l-126.26,222-.32.55v82.45H773.71V763.58H616.07L717.22,575.66C736.2,540.42,750.64,507.81,760.15,478.74Z" transform="translate(-100.3 -220.45)"/><path class="cls-7" d="M529.77,744.81,656,522.83q26.88-46.44,39.91-84.31t13-66.8v-4.07q0-27.28-10.39-40.73T667,313.47q-25.26,0-37.27,18.13t-12,55.19V398.2H526.5V386.79q.4-53.76,15.48-89.41t45.42-53.56q30.33-17.91,76-17.92t76,15.89q30.33,15.89,45.61,47.45t15.28,78.81v4.08q0,34.2-14.26,77.79t-42.77,96.53L640.14,737.89H799.4v86.34H529.77Z" transform="translate(-100.3 -220.45)"/><path class="cls-4" d="M801.79,826.63H527.37V744.18l.31-.55L654,521.65c17.76-30.67,31.12-58.9,39.73-83.91s12.91-47.11,12.91-66v-4.07c0-17.57-3.33-30.78-9.89-39.27S680.49,315.87,667,315.87c-16.14,0-27.67,5.57-35.27,17.05s-11.63,29.75-11.63,53.87v13.8h-96v-13.8c.27-36,5.54-66.38,15.67-90.34,10.2-24.12,25.81-42.52,46.4-54.69s46.48-18.25,77.18-18.25S720,229,740.43,239.67s36.3,27.11,46.67,48.53,15.51,48.14,15.51,79.85v4.08c0,22.95-4.84,49.37-14.37,78.53s-24,61.67-42.94,96.93L644.15,735.5H801.79Zm-269.63-4.78H797V740.28H636.14l105-195c18.85-35,33.18-67.35,42.6-96.14s14.13-54.61,14.13-77.05v-4.08c0-31-5.05-57.15-15-77.77-9.91-20.47-24.91-36.07-44.57-46.37s-45-15.62-74.86-15.62-55,5.92-74.75,17.59S554,275.16,544.19,298.32c-9.88,23.37-15,53.14-15.29,88.49v9h86.45v-9c0-25.08,4.18-44.09,12.42-56.51,8.43-12.74,21.65-19.2,39.26-19.2,14.83,0,26.09,4.84,33.46,14.37,7.22,9.35,10.88,23.54,10.88,42.2v4.07c0,19.45-4.43,42.18-13.16,67.58S676,493.11,658.1,524L532.16,745.44Z" transform="translate(-100.3 -220.45)"/><path class="cls-5" d="M934.51,576.19c-10.57-15.59-25.27-27.31-43.72-34.89,15.51-10.91,27.82-23.27,36.61-36.79,9.58-14.72,14.45-29.82,14.45-44.89V378.57c0-40.38-11.13-72.19-33.07-94.55S855.63,250.31,816,250.31c-27.94,0-52.28,5-72.34,14.91a103.78,103.78,0,0,0-46.26,44.18c-10.46,19.27-15.76,42.54-15.76,69.17v47.2h94.39V379.38c0-7.71,1.48-14.39,4.4-19.85a29.9,29.9,0,0,1,12.47-12.46c5.46-2.92,12.27-4.4,20.25-4.4,10.94,0,19.54,3.18,25.56,9.45s9.11,15.33,9.11,26.85v77.39c0,13.25-2.78,23.59-8.26,30.72s-12.86,10.47-22.75,10.47H777.4v90.73h39.45c13.21,0,23.06,4.24,30.12,13s10.67,21.27,10.67,37.19v83.09c0,14.49-3.89,25.86-11.55,33.77s-18.71,11.9-32.9,11.9c-9.65,0-18.07-1.7-25-5.06A35.44,35.44,0,0,1,772.49,748c-3.59-6.14-5.54-13.7-5.79-22.42V684.5H672.31v45.17c0,27.17,5.58,50.8,16.61,70.21s27.37,34.49,48.5,44.56,46.63,15.11,76.18,15.11c28.47,0,53.43-5.36,74.19-15.95a108.4,108.4,0,0,0,47.67-46.84c10.72-20.34,16.16-45.24,16.16-74V636C951.62,613.08,945.87,593,934.51,576.19Z" transform="translate(-100.3 -220.45)"/><path class="cls-8" d="M766.53,814.2q-31.15-14.87-47.45-43.58t-16.29-69V658.81h89.6v38.7q.4,13.86,6.11,23.62a37.58,37.58,0,0,0,16.7,15.07q11,5.31,26.07,5.3,22.4,0,34.62-12.63t12.22-35.43V610.35q0-24.86-11.2-38.7t-32-13.85H807.87V471.86h37.07q15.87,0,24.64-11.4t8.75-32.18V350.89q0-18.33-9.77-28.51T841.27,312.2q-12.63,0-21.38,4.68a32,32,0,0,0-13.44,13.44q-4.69,8.78-4.69,21v44H712.15V350.48q0-39.5,15.48-68a100.84,100.84,0,0,1,45.21-43.17q29.73-14.67,71.28-14.66,58.65,0,91,33t32.39,92.86v81.06q0,22-14.06,43.58t-39.71,38.69q30.15,11,46.84,35.64t16.7,58.45v86.76q0,42.76-15.89,72.91a105.56,105.56,0,0,1-46.63,45.82Q884,829.07,841.68,829.07,797.69,829.07,766.53,814.2Z" transform="translate(-100.3 -220.45)"/><path class="cls-4" d="M841.68,831.47c-29.55,0-55.18-5.09-76.18-15.1S728.05,791.29,717,771.8s-16.61-43-16.61-70.21V656.43h94.4v41.08c.25,8.72,2.19,16.28,5.77,22.42a35.52,35.52,0,0,0,15.68,14.12c7,3.36,15.38,5.06,25,5.06,14.19,0,25.27-4,32.9-11.9s11.55-19.28,11.55-33.77V610.35c0-15.93-3.59-28.43-10.67-37.19s-16.91-13-30.11-13H805.48V469.47h39.46c9.89,0,17.33-3.42,22.74-10.47s8.26-17.47,8.26-30.72V350.89c0-11.52-3.06-20.55-9.11-26.85s-14.62-9.45-25.56-9.45c-8,0-14.79,1.48-20.26,4.4a29.88,29.88,0,0,0-12.46,12.46c-2.92,5.46-4.4,12.14-4.4,19.85v46.38H709.76v-47.2c0-26.62,5.31-49.89,15.77-69.16a103.66,103.66,0,0,1,46.25-44.18c20.06-9.89,44.4-14.91,72.34-14.91,39.58,0,70.79,11.35,92.74,33.71s33.07,54.17,33.07,94.54v81.06c0,15.07-4.86,30.17-14.44,44.88-8.8,13.53-21.1,25.89-36.63,36.8,18.46,7.58,33.16,19.3,43.73,34.89C974,564.87,979.7,585,979.7,607.9v86.76c0,28.78-5.43,53.68-16.16,74a108.43,108.43,0,0,1-47.66,46.84C895.12,826.1,870.15,831.47,841.68,831.47ZM705.18,661.21v40.38c0,26.33,5.37,49.17,16,67.85s26.17,33,46.4,42.61,45.29,14.63,74.12,14.63c27.71,0,51.94-5.19,72-15.42a103.81,103.81,0,0,0,45.61-44.81c10.36-19.65,15.61-43.8,15.61-71.79V607.9c0-21.94-5.48-41.15-16.29-57.1S932.46,523.18,913,516.06l-4.44-1.62,3.93-2.61c16.76-11.18,29.9-24,39-38s13.66-28.14,13.66-42.27V350.48c0-39.08-10.66-69.76-31.69-91.19S882.37,227,844.12,227c-27.2,0-50.82,4.85-70.22,14.41a99,99,0,0,0-44.17,42.18c-10.08,18.56-15.18,41.06-15.18,66.87V392.9h84.82V351.3c0-8.5,1.67-15.94,5-22.11a34.57,34.57,0,0,1,14.42-14.42c6.16-3.3,13.74-5,22.51-5,12.29,0,22.06,3.68,29,10.92s10.45,17.38,10.45,30.17v77.39c0,14.32-3.12,25.64-9.25,33.64-6.3,8.18-15.23,12.34-26.54,12.34H810.26v81.15h34.68c14.53,0,25.91,5,33.83,14.74s11.73,23.15,11.73,40.2v83.09c0,15.78-4.34,28.26-12.89,37.1s-20.8,13.35-36.34,13.35c-10.37,0-19.49-1.86-27.11-5.53a40.16,40.16,0,0,1-17.73-16c-4-6.84-6.15-15.17-6.43-24.76V661.21Z" transform="translate(-100.3 -220.45)"/></g></g></svg>