<svg id="Layer_1" data-name="Layer 1" xmlns="http://www.w3.org/2000/svg" viewBox="0 0 13.19 19.84"><defs><style>.cls-1{fill:#fff;}</style></defs><path class="cls-1" d="M9.9,20.63c-.38,0-.77-.07-1.15-.12a8.85,8.85,0,0,1-3.37-1,3.65,3.65,0,0,1-.89-.72,1.3,1.3,0,0,1,0-1.78A3.66,3.66,0,0,1,6,16a10.47,10.47,0,0,1,2.4-.64l-.15-.21C7.34,14,6.46,12.91,5.63,11.76A7.69,7.69,0,0,1,4.25,8.58,6.59,6.59,0,0,1,17.19,6.11a6.78,6.78,0,0,1-.79,4.74,23,23,0,0,1-2,2.89l-1.28,1.64.92.18a6.52,6.52,0,0,1,2.09.78,3.52,3.52,0,0,1,.79.64,1.35,1.35,0,0,1,0,1.91,3.71,3.71,0,0,1-1.24.87,10.23,10.23,0,0,1-3,.77c-.38,0-.77.08-1.15.12C11,20.63,10.44,20.63,9.9,20.63Zm.8-3.37.13-.16L13.16,14c.76-1,1.54-2,2.25-3.07a6.19,6.19,0,0,0,1-4.49A5.82,5.82,0,1,0,5.25,9.42a10.26,10.26,0,0,0,1.54,2.69c1.28,1.7,2.58,3.38,3.87,5.07Zm-.27,2.59a13.5,13.5,0,0,0,4.3-.58,3.72,3.72,0,0,0,1.5-.81.65.65,0,0,0,0-1.08,3.26,3.26,0,0,0-.66-.46,8.42,8.42,0,0,0-2.91-.81.26.26,0,0,0-.21.11L11.09,18q-.39.54-.78,0c-.45-.61-.9-1.21-1.34-1.82a.23.23,0,0,0-.26-.11c-.6.13-1.2.23-1.79.39a4.07,4.07,0,0,0-1.7.85c-.44.4-.46.8,0,1.17a4.41,4.41,0,0,0,1,.6A12.05,12.05,0,0,0,10.43,19.85Z" transform="translate(-4.14 -0.81)"/><path class="cls-1" d="M10.71,10.1a2.71,2.71,0,1,1,2.72-2.7A2.71,2.71,0,0,1,10.71,10.1Zm1.94-2.7a1.94,1.94,0,1,0-1.94,1.92A1.93,1.93,0,0,0,12.65,7.4Z" transform="translate(-4.14 -0.81)"/><path class="cls-1" d="M15.75,7.23V7.4a.39.39,0,1,1-.78,0,4.14,4.14,0,0,0-.29-1.55,4.2,4.2,0,0,0-2.46-2.44c-.24-.1-.36-.25-.33-.44a.4.4,0,0,1,.57-.3A5,5,0,0,1,14.8,4.46,5,5,0,0,1,15.75,7.23Z" transform="translate(-4.14 -0.81)"/><path class="cls-1" d="M10.74,3.13a.38.38,0,0,1-.37-.4.39.39,0,0,1,.39-.37.39.39,0,1,1,0,.77Z" transform="translate(-4.14 -0.81)"/></svg>