<svg id="Layer_1" data-name="Layer 1" xmlns="http://www.w3.org/2000/svg" viewBox="0 0 14.91 10.48"><defs><style>.cls-1{fill:#fff;}</style></defs><path class="cls-1" d="M18.19,14.81a3.84,3.84,0,0,1-.26.62,1.25,1.25,0,0,1-1,.54H4.68a1.35,1.35,0,0,1-1.13-.53,1.34,1.34,0,0,1-.27-.81V6.83A1.31,1.31,0,0,1,4.66,5.49H16.79a1.31,1.31,0,0,1,1.26.75,2.8,2.8,0,0,1,.13.41Q18.2,10.73,18.19,14.81ZM4.8,6.37l0,0c1.65,1.64,3.3,3.29,5,4.92a1.47,1.47,0,0,0,.5.32,1.27,1.27,0,0,0,1.42-.34L16.6,6.47l.09-.09Zm3.75,5L4.86,15.09H16.62L13,11.3l-.41.44a4.89,4.89,0,0,1-.47.44A2.17,2.17,0,0,1,9.18,12C9,11.77,8.77,11.56,8.55,11.33Zm-.71-.57L4.17,7v7.46ZM17.31,7l0,0-3.7,3.76,3.74,3.71C17.31,12,17.31,9.5,17.31,7Z" transform="translate(-3.28 -5.49)"/></svg>