<svg id="Layer_1" data-name="Layer 1" xmlns="http://www.w3.org/2000/svg" viewBox="0 0 970.07 153.41"><defs><style>.cls-1{fill:#5028c7;}</style></defs><path class="cls-1" d="M70.29,95.68a195.28,195.28,0,0,0-33.16,10.09c-.41.83-.82,1.68-1.24,2.56q-10.71,20.58-14.44,39-.78,4.33-3.49,4.34a4.45,4.45,0,0,1-3.57-2,5.25,5.25,0,0,1-1.24-3.34c0-1.45.64-4.47,1.94-9.05a120.56,120.56,0,0,1,4-12.07q.78-1.94,4.89-11.33c.68-1.51,1.35-3.08,2-4.74-1.08.41-2.59,1-4.5,1.86a5.59,5.59,0,0,1-2.25.55q-2.41,0-2.41-3.65a4,4,0,0,1,2-3.65,28.56,28.56,0,0,1,5.51-2.41c2.8-1,5-1.89,6.6-2.56q1.56-2.72,5.9-11.18.78-1.54,5.2-8.85Q54.76,58,58.56,48.94q3.49-8.14,4.35-9.24a4.6,4.6,0,0,1,3.73-2c2.43,0,3.65,1.2,3.65,3.58q0,8.15-22.21,44a66.88,66.88,0,0,0-5.36,10.24l3.89-1.08q15.84-4.59,28.8-8Q84.34,70,97.3,50q2.25-3.57,2.64-4.42c1.25-2.23,2.56-3.34,4-3.34a3.6,3.6,0,0,1,2.95,1.47,4.45,4.45,0,0,1,.93,2.72q0,2.79-3,8c-.47.82-2.59,4.14-6.37,9.93q-9.94,15.38-12.5,20.58,2.25-.24,3.42-.24c4.08,0,6.13,1,6.13,3a5.07,5.07,0,0,1-1.94,3.65,4.65,4.65,0,0,1-3.26,1.4h-3a33.06,33.06,0,0,0-5.59.7q-16.45,29.34-21.5,51.47-1.24,5-3.89,5c-1.34,0-2.61-.86-3.8-2.56a6.83,6.83,0,0,1-1.17-3.81Q51.26,136,70.29,95.68Z" transform="translate(-13.15 -37.68)"/><path class="cls-1" d="M107.55,130.61a58,58,0,0,1-5,7.61q-4.89,6.06-9.7,6.06a7.23,7.23,0,0,1-6.52-4,12,12,0,0,1-1.48-6.06q0-8.61,5.44-19,6.06-11.56,14.59-17.78,5.6-4,10.8-4a7.66,7.66,0,0,1,5.43,2,5.46,5.46,0,0,1,1.86,4,13,13,0,0,1-1.32,4.74,5.17,5.17,0,0,1,1.17,2.87c0,1.09-.73,2.87-2.18,5.36a59.67,59.67,0,0,0-4.5,10.09q-2.4,6.67-2.41,10.71a7.56,7.56,0,0,0,1.95,5.36,14.65,14.65,0,0,0,3.18,1.79,3.31,3.31,0,0,1,1.94,3.26,3,3,0,0,1-1.09,2.4,4,4,0,0,1-2.71,1,9,9,0,0,1-7.22-3.72,11.6,11.6,0,0,1-2.49-7.61C107.24,134.7,107.34,133,107.55,130.61Zm9.71-25.54a7.82,7.82,0,0,0-2-2.52,3.85,3.85,0,0,0-2.33-.82q-5.91,0-12.81,10.33-7.62,11.41-7.61,19.33a4.88,4.88,0,0,0,.74,3,2.57,2.57,0,0,0,2.21,1q3.72,0,8.7-7.92a133.64,133.64,0,0,0,6.91-12.81,71.12,71.12,0,0,1,4-7.3A11.53,11.53,0,0,1,117.26,105.07Z" transform="translate(-13.15 -37.68)"/><path class="cls-1" d="M148.23,102.2q3.18-2,4.74-2.8a14.16,14.16,0,0,1,6.21-1.55,6.39,6.39,0,0,1,5.12,2q1.71,2,1.71,5.94,0,5.43-3.8,13-5.91,12-14.29,18.95-7.06,5.82-13.27,5.82a10.86,10.86,0,0,1-6.76-2.64,476.74,476.74,0,0,0-19,43.86c-1.19,3.58-2.59,5.36-4.19,5.36a3.14,3.14,0,0,1-2.33-1.55,3.82,3.82,0,0,1-.85-2.41q0-4.19,10.24-27.25,15.84-35.55,30.05-59.08,3-5,4-6.83Q148.47,88,151,88c1.76,0,2.64,1.06,2.64,3.19A10.12,10.12,0,0,1,151.8,96Q149.55,99.88,148.23,102.2Zm-17.47,32.22A5.68,5.68,0,0,0,135,136.2q7.23,0,16-12.81a47.58,47.58,0,0,0,5.2-9.7,18.39,18.39,0,0,0,1.55-6,2.93,2.93,0,0,0-.66-2.09,2.68,2.68,0,0,0-2.05-.7q-3.66,0-8.93,5a54.14,54.14,0,0,0-9.71,13.75Q132.17,131.85,130.76,134.42Z" transform="translate(-13.15 -37.68)"/><path class="cls-1" d="M190.16,102.2q3.18-2,4.73-2.8a14.2,14.2,0,0,1,6.21-1.55,6.41,6.41,0,0,1,5.13,2q1.71,2,1.71,5.94,0,5.43-3.81,13-5.9,12-14.28,18.95-7.07,5.82-13.28,5.82a10.82,10.82,0,0,1-6.75-2.64,474,474,0,0,0-19,43.86c-1.19,3.58-2.59,5.36-4.2,5.36a3.16,3.16,0,0,1-2.33-1.55,3.82,3.82,0,0,1-.85-2.41q0-4.19,10.25-27.25,15.84-35.55,30-59.08,3-5,4-6.83Q190.39,88,193,88c1.76,0,2.64,1.06,2.64,3.19A10.19,10.19,0,0,1,193.73,96Q191.48,99.88,190.16,102.2Zm-17.47,32.22A5.66,5.66,0,0,0,177,136.2q7.22,0,16-12.81a47.09,47.09,0,0,0,5.2-9.7,18.21,18.21,0,0,0,1.56-6,2.93,2.93,0,0,0-.66-2.09,2.7,2.7,0,0,0-2.06-.7q-3.65,0-8.93,5a54.14,54.14,0,0,0-9.7,13.75Q174.08,131.85,172.69,134.42Z" transform="translate(-13.15 -37.68)"/><path class="cls-1" d="M237.59,121.69q-6.9,8.15-11,12.11-8.16,7.75-13.59,7.76a5.07,5.07,0,0,1-4.19-1.94,6.25,6.25,0,0,1-1.16-3.88q0-8.39,9.93-22.28,10.09-14.13,14.6-14.13a3.34,3.34,0,0,1,3,3.1,5.06,5.06,0,0,1-.9,3,69.83,69.83,0,0,1-5.08,5.71,78.86,78.86,0,0,0-8.15,9.94q-4.27,6-4.27,8.85c0,1.08.51,1.63,1.55,1.63q3.1,0,11.64-8.47,5.37-5.35,8.39-9,.62-.78,5.43-7.38,4.35-5.82,5.36-6.91,2.33-2.72,4.35-2.71a3,3,0,0,1,2.25,1.08,3.35,3.35,0,0,1,.93,2.33q0,2.25-3.1,7.53-3.74,6.45-6.84,12a122.15,122.15,0,0,0-7.53,15.52,42.71,42.71,0,0,0,9.09-7.06q7-7,8.54-10.4,1.47-3.11,3-3.11a1.93,1.93,0,0,1,2.18,2.17q0,4.13-7,12.27a74.68,74.68,0,0,1-20.65,16.61,247.13,247.13,0,0,1-12.34,26q-10.87,19-22.44,19a9.19,9.19,0,0,1-7.61-3.65,10.88,10.88,0,0,1-2.25-7.06q0-12.1,17-24.77a149.47,149.47,0,0,1,14.75-9.31q4-2.25,6.21-3.65,1.4-3.57,4.27-9.47Q235.18,126.81,237.59,121.69ZM223.31,152.2a79.5,79.5,0,0,0-16.85,12q-8.7,8-8.69,14.91a3.8,3.8,0,0,0,3.88,3.88q5.82,0,12.88-12.19,1.17-2,6.37-13.43Z" transform="translate(-13.15 -37.68)"/><path class="cls-1" d="M352.88,131.93A277.17,277.17,0,0,1,368.1,95.37Q375,81.78,386.66,61.29,395.27,46.14,398,43.2t5.59-3c1.66,0,2.48.72,2.48,2.17a6.53,6.53,0,0,1-1.08,3c-.68,1.19-2.82,4.68-6.45,10.48q-17.92,29.19-26.16,48-7.46,16.85-12.81,33a26.94,26.94,0,0,1-4.27,8.62c-2.28,2.8-4.58,4.19-6.91,4.19-2.12,0-3.47-1.52-4-4.58A42.31,42.31,0,0,1,344,138a261.54,261.54,0,0,1,3.64-41.22,318,318,0,0,1,6.6-31.91q-7.45,8.22-22.28,34.47a214.64,214.64,0,0,0-17.54,38.82q-2.42,7.44-3.5,9.23c-1.34,2.28-3.08,3.42-5.2,3.42a2.85,2.85,0,0,1-2.25-1.09,2.9,2.9,0,0,1-.78-1.86q0-3,5.05-15.6,6.53-16.47,21.66-42.08,9-15.3,21.43-32.53,5.9-8.23,8.77-10.64a8,8,0,0,1,5-2.17,2.72,2.72,0,0,1,1.78.62,2.57,2.57,0,0,1,1.09,2.09,9.71,9.71,0,0,1-.77,3.5,202.92,202.92,0,0,0-7.69,26.47q-6.29,27.26-6.29,46.35Q352.65,126.5,352.88,131.93Z" transform="translate(-13.15 -37.68)"/><path class="cls-1" d="M388.36,128.52v1.4a5.08,5.08,0,0,0,.86,3q1.93,2.87,6.36,2.87,9.71,0,22.44-14.91,2.25-2.56,3.8-2.56a2,2,0,0,1,1.56.85,2,2,0,0,1,.46,1.17q0,3-7.45,10.25A56,56,0,0,1,404,139.78a26,26,0,0,1-12.27,3.57,11.26,11.26,0,0,1-9.16-4,11.79,11.79,0,0,1-2.25-7.61q0-13.11,12.34-25.7,10-10.25,17.47-10.24A5.86,5.86,0,0,1,413.75,97a5.22,5.22,0,0,1,2,4.27q0,4.11-3.81,10.09Q404.13,123.78,388.36,128.52Zm1.71-6.06a31.26,31.26,0,0,0,8.54-4.19,34.42,34.42,0,0,0,8.62-9.47,6.45,6.45,0,0,0,1.16-3.34c0-1-.49-1.55-1.47-1.55-1.35,0-3.26,1-5.75,3Q394.5,112.3,390.07,122.46Z" transform="translate(-13.15 -37.68)"/><path class="cls-1" d="M453,121.76q-6.69,9-9.86,12.43a63.12,63.12,0,0,1-6.83,6.52,10.49,10.49,0,0,1-6.06,2.4A4.57,4.57,0,0,1,426,140.4a9.4,9.4,0,0,1-1.17-4.66q0-8.46,10.1-23.29Q444.1,99,448.53,99a3.34,3.34,0,0,1,3,3.18q0,1.71-3,4.74a70.65,70.65,0,0,0-11.18,14.36q-4,6.83-4,8.93c0,1,.46,1.55,1.39,1.55q4.67,0,20.19-20.19,5-6.51,6.13-7.53a6.1,6.1,0,0,1,4.12-1.86,3.8,3.8,0,0,1,2.4.78,2.21,2.21,0,0,1,.86,1.63c0,.62-1.25,3.23-3.73,7.84q-8.46,14.91-8.46,20.11c0,1.34.54,2,1.63,2q2.79,0,7.68-6.44a70.28,70.28,0,0,0,8.62-15.37,56.28,56.28,0,0,0,3-10.64c1-5,3.11-7.53,6.21-7.53,1.76,0,2.64,1,2.64,3q0,10.17-11.33,27.95Q462.9,144,454.82,144.05q-6,0-6-7.38Q448.84,130.61,453,121.76Z" transform="translate(-13.15 -37.68)"/><path class="cls-1" d="M579.43,92.81q-6.13,6-14.91,13.82a98.43,98.43,0,0,1-8.85,7.14,14.1,14.1,0,0,1-8.46,3q-4.43,0-6.76-4.66a11.8,11.8,0,0,1-1.24-5.36q0-9.78,7.92-24.3a107.86,107.86,0,0,1,19.49-25.15Q579,45.05,584.09,45.06a3,3,0,0,1,2.17.93,3.2,3.2,0,0,1,.85,2.25,4.57,4.57,0,0,1-1.55,3.57,27.64,27.64,0,0,1-3.65,2.57,69.51,69.51,0,0,0-10.79,9,85.9,85.9,0,0,0-16.3,21.82q-6.69,13-6.68,18.32a3.4,3.4,0,0,0,.7,2.1,2.9,2.9,0,0,0,2.48,1.32q3,0,10.1-5.67a110.65,110.65,0,0,0,13.81-12.35Q590.61,72.32,598.29,62q7.38-10,12.42-16c2.85-3.36,5-5.05,6.6-5.05A3.15,3.15,0,0,1,620,42.5a4.94,4.94,0,0,1,.86,2.87c0,1.81-1,4-2.95,6.52q-21,27.64-27.87,37.66a227.16,227.16,0,0,0-17.94,31.9q-8.77,18.79-10.63,25.08-1.8,5.82-3.34,7.38a4.86,4.86,0,0,1-3.5,1.55c-2.43,0-3.65-1.17-3.65-3.49q0-3.81,4.9-15.53a202.66,202.66,0,0,1,14-27.64Q576.95,97.16,579.43,92.81Z" transform="translate(-13.15 -37.68)"/><path class="cls-1" d="M597.36,128.52v1.4a5.15,5.15,0,0,0,.85,3q1.95,2.87,6.37,2.87,9.7,0,22.44-14.91,2.25-2.56,3.8-2.56a2,2,0,0,1,1.55.85,2,2,0,0,1,.47,1.17q0,3-7.45,10.25A56.19,56.19,0,0,1,613,139.78a26,26,0,0,1-12.27,3.57,11.25,11.25,0,0,1-9.16-4,11.79,11.79,0,0,1-2.25-7.61q0-13.11,12.34-25.7,10-10.25,17.47-10.24A5.88,5.88,0,0,1,622.75,97a5.25,5.25,0,0,1,2,4.27q0,4.11-3.81,10.09Q613.12,123.78,597.36,128.52Zm1.71-6.06a31.26,31.26,0,0,0,8.54-4.19,34.58,34.58,0,0,0,8.62-9.47,6.54,6.54,0,0,0,1.16-3.34c0-1-.49-1.55-1.47-1.55-1.35,0-3.26,1-5.75,3Q603.5,112.3,599.07,122.46Z" transform="translate(-13.15 -37.68)"/><path class="cls-1" d="M657.76,130.61a59,59,0,0,1-5,7.61q-4.89,6.06-9.71,6.06a7.23,7.23,0,0,1-6.52-4,12,12,0,0,1-1.48-6.06q0-8.61,5.44-19,6.06-11.56,14.6-17.78,5.58-4,10.79-4a7.66,7.66,0,0,1,5.43,2,5.46,5.46,0,0,1,1.86,4,13.1,13.1,0,0,1-1.31,4.74,5.22,5.22,0,0,1,1.16,2.87c0,1.09-.73,2.87-2.17,5.36a58.82,58.82,0,0,0-4.51,10.09q-2.4,6.67-2.4,10.71a7.55,7.55,0,0,0,1.94,5.36A14.65,14.65,0,0,0,669,140.4a3.31,3.31,0,0,1,1.94,3.26,3,3,0,0,1-1.09,2.4,4,4,0,0,1-2.71,1,9,9,0,0,1-7.22-3.72,11.6,11.6,0,0,1-2.49-7.61C657.45,134.7,657.56,133,657.76,130.61Zm9.71-25.54a7.69,7.69,0,0,0-2-2.52,3.85,3.85,0,0,0-2.33-.82q-5.89,0-12.81,10.33-7.6,11.41-7.61,19.33a5,5,0,0,0,.74,3,2.57,2.57,0,0,0,2.21,1c2.49,0,5.38-2.64,8.7-7.92a133.64,133.64,0,0,0,6.91-12.81,68.62,68.62,0,0,1,4-7.3A11.14,11.14,0,0,1,667.47,105.07Z" transform="translate(-13.15 -37.68)"/><path class="cls-1" d="M690.21,117.88A151.7,151.7,0,0,1,707.76,102a71.25,71.25,0,0,1,7.61-5.2,7.9,7.9,0,0,1,2.56-1.17c.78,0,1.55.57,2.33,1.71A2.91,2.91,0,0,1,721,99q0,1.4-3,3.8-7.92,6.29-7.92,9.47c0,1.19.67,1.79,2,1.79q3.33,0,11.49-5.51a4.48,4.48,0,0,1,2.33-.94,1.79,1.79,0,0,1,1.24.63,2,2,0,0,1,.7,1.47q0,2.33-6.52,7.14-6.84,5.13-13,5.13a8.43,8.43,0,0,1-4.58-1.32c-1.19-.73-1.78-2-1.78-3.88a8.33,8.33,0,0,1,1.63-4.43q-6.14,4.35-14.45,14.91a107.56,107.56,0,0,0-9.54,16.07q-1.78,3.57-4.43,3.57c-1.91,0-2.87-.91-2.87-2.72s1.5-6.47,4.5-14.13q6.67-17.07,14-26.47,4.5-5.82,7.53-5.83a3.07,3.07,0,0,1,1.86.63,2.35,2.35,0,0,1,1,1.94,6.43,6.43,0,0,1-1.55,3.26l-4.12,5.2A41.06,41.06,0,0,0,690.21,117.88Z" transform="translate(-13.15 -37.68)"/><path class="cls-1" d="M769.79,137.29a80.34,80.34,0,0,1,24-4.11,12.11,12.11,0,0,1,6.91,1.78,4.53,4.53,0,0,1,2.33,3.81,3.76,3.76,0,0,1-1.09,2.64,3.32,3.32,0,0,1-2.48,1.16,6.67,6.67,0,0,1-1.4-.23,28.09,28.09,0,0,0-7.3-1.09,56.79,56.79,0,0,0-7.06.54q-1.47.24-10.79,2.8-8.39,2.25-9.94,2.25a4.72,4.72,0,0,1-3.8-2.1,6.54,6.54,0,0,1-1.48-4c0-1.56,1.35-3.65,4-6.29q7.6-7.45,14.67-13.43,6.68-5.59,16.54-12.89Q804.18,99.79,808.46,96q6.36-5.59,6.36-11.18a6.18,6.18,0,0,0-2-4.89,6.58,6.58,0,0,0-4.5-1.55q-7,0-16.46,7.84-4.35,3.57-5.43,3.57a2.85,2.85,0,0,1-1.79-.93,2.88,2.88,0,0,1-1.09-2.26q0-2.79,6.76-7.91,10.86-8.24,20.73-8.23a13.13,13.13,0,0,1,9.47,3.65,11.28,11.28,0,0,1,3.65,8.46q0,8.7-8.85,17.23a144.08,144.08,0,0,1-14,11.18Q776.86,128.83,769.79,137.29Z" transform="translate(-13.15 -37.68)"/><path class="cls-1" d="M867.61,74.17a11.89,11.89,0,0,1,6.25,5.24,18.45,18.45,0,0,1,2.06,9.2q0,17.33-13.51,36.8-14.67,21.19-28.1,21.2-6.67,0-10-6.91a24.82,24.82,0,0,1-2.17-10.87q0-15.38,11.26-32.45a104.36,104.36,0,0,1,15.76-18.09q10.4-9.63,15-9.63Q867.62,68.66,867.61,74.17Zm-10.09,5.59a79.55,79.55,0,0,0-16.07,18.17q-10,15.38-10,29.73a15.56,15.56,0,0,0,1.16,6.68q1.93,3.74,5.36,3.73,5.35,0,12.81-8.23a66,66,0,0,0,13-22.36q3.65-10,3.65-16.93a12.17,12.17,0,0,0-3-8.23,7.14,7.14,0,0,0-5.36-2.56Z" transform="translate(-13.15 -37.68)"/><path class="cls-1" d="M878.48,137.29a80.39,80.39,0,0,1,24-4.11,12.11,12.11,0,0,1,6.91,1.78,4.51,4.51,0,0,1,2.33,3.81,3.79,3.79,0,0,1-1.08,2.64,3.36,3.36,0,0,1-2.49,1.16,6.67,6.67,0,0,1-1.4-.23,28.08,28.08,0,0,0-7.29-1.09,56.94,56.94,0,0,0-7.07.54q-1.47.24-10.79,2.8-8.39,2.25-9.94,2.25a4.72,4.72,0,0,1-3.8-2.1,6.54,6.54,0,0,1-1.48-4c0-1.56,1.35-3.65,4-6.29Q878,127,885.08,121q6.67-5.59,16.54-12.89Q912.87,99.79,917.15,96q6.36-5.59,6.36-11.18a6.18,6.18,0,0,0-2-4.89,6.58,6.58,0,0,0-4.5-1.55q-7,0-16.46,7.84-4.35,3.57-5.43,3.57a3.56,3.56,0,0,1-2.87-3.19q0-2.79,6.75-7.91,10.88-8.24,20.73-8.23a13.12,13.12,0,0,1,9.47,3.65,11.28,11.28,0,0,1,3.65,8.46q0,8.7-8.85,17.23A144.08,144.08,0,0,1,910,111Q885.55,128.83,878.48,137.29Z" transform="translate(-13.15 -37.68)"/><path class="cls-1" d="M967.77,99.25a14,14,0,0,1,5.51,3.65q2.4,2.86,2.4,8,0,12.64-10.63,24.3t-21.9,11.64a13.49,13.49,0,0,1-11.25-5.74,14.88,14.88,0,0,1-3.11-9.17q0-8.22,6.37-8.22c2.53,0,3.8,1,3.8,2.87a11.63,11.63,0,0,1-.15,1.63,14.73,14.73,0,0,0-.24,2.64,8,8,0,0,0,1.79,5.59,6.36,6.36,0,0,0,4.74,2.09q6.58,0,14.2-9.23,7.23-8.87,7.22-16.85a9.62,9.62,0,0,0-1.94-6.37,7.21,7.21,0,0,0-5.82-2.48,9.76,9.76,0,0,0-3,.46,10,10,0,0,1-2.72.55q-2.25,0-2.25-3a5.77,5.77,0,0,1,1.79-4.35,10.06,10.06,0,0,1,4.27-1.86,37.2,37.2,0,0,0,10.94-4.51,13.58,13.58,0,0,0,4.58-5,7.29,7.29,0,0,0,.86-3.42,4.27,4.27,0,0,0-1.21-3.34,5.37,5.37,0,0,0-3.68-1.09,20,20,0,0,0-8.7,2.18c-.78.36-2.61,1.42-5.51,3.18a4.51,4.51,0,0,1-2.56.78c-1.76,0-2.64-1-2.64-2.87q0-2.56,3.88-5.36,9.07-6.45,17.78-6.45a12.71,12.71,0,0,1,8.77,3.19,10.59,10.59,0,0,1,3.81,8.15q0,6.29-5.44,11.8Q974.83,95.76,967.77,99.25Z" transform="translate(-13.15 -37.68)"/></svg>