<svg id="Layer_1" data-name="Layer 1" xmlns="http://www.w3.org/2000/svg" viewBox="0 0 15.31 15.31"><defs><style>.cls-1{fill:#fff;}</style></defs><path class="cls-1" d="M11.18,18.39h-.9l-.13,0c-.42-.06-.84-.1-1.25-.2A7.66,7.66,0,0,1,3.21,9.3,7.45,7.45,0,0,1,5.54,5.11a7.5,7.5,0,0,1,6.24-2,7.27,7.27,0,0,1,4,1.82,7.54,7.54,0,0,1,2.5,4.44c0,.29.08.58.12.87v.9l0,.16c0,.28-.06.55-.11.83a7.65,7.65,0,0,1-6.19,6.1C11.76,18.33,11.47,18.35,11.18,18.39Zm-.91-8.1V8L7.69,7.86a12.35,12.35,0,0,0-.32,2.43Zm.92,0h2.9a12.14,12.14,0,0,0-.31-2.41L11.2,8C11.19,8.78,11.19,9.53,11.19,10.28Zm-4.75,0c.11-.87.22-1.72.32-2.56L5,7.28s-.11,0-.13.08a6.43,6.43,0,0,0-.63,1.45A6.56,6.56,0,0,0,4,10.28Zm11,.92H15q-.16,1.28-.33,2.52l1.86.44A6.66,6.66,0,0,0,17.47,11.2Zm0-.92a6.58,6.58,0,0,0-.91-2.95l-1.85.41c.11.84.21,1.69.32,2.54Zm-3.39.92H11.19v2.2l2.57.18A10.57,10.57,0,0,0,14.08,11.2Zm-6.7,0a12.19,12.19,0,0,0,.31,2.36l2.58-.16V11.2Zm-.62,2.5c-.11-.84-.21-1.67-.32-2.5H4a6.61,6.61,0,0,0,.85,2.85.17.17,0,0,0,.14,0L5.51,14Zm4.43-6.56L13.54,7c-.17-.39-.31-.74-.48-1.08A4.23,4.23,0,0,0,12,4.49a1.89,1.89,0,0,0-.79-.42C11.19,5.08,11.19,6.09,11.19,7.14Zm-.91,10.23V14.3L8,14.44A5.8,5.8,0,0,0,9.3,16.76,2.12,2.12,0,0,0,10.28,17.37ZM7.94,7l2.33.15V4C9,4.59,8.44,5.75,7.94,7Zm5.57,7.48-2.32-.15v3.07a2.07,2.07,0,0,0,.81-.44A5.86,5.86,0,0,0,13.51,14.46ZM7,14.57l-1.6.34A6.73,6.73,0,0,0,8.27,17c-.24-.4-.49-.77-.7-1.17S7.21,15,7,14.57ZM13.19,17A6.5,6.5,0,0,0,16,15l-1.6-.35A8.63,8.63,0,0,1,13.19,17Zm0-12.54a8.34,8.34,0,0,1,1.21,2.4L16,6.55A6.53,6.53,0,0,0,13.22,4.48ZM7.05,6.85A8.12,8.12,0,0,1,8.24,4.48a6.72,6.72,0,0,0-2.76,2Z" transform="translate(-3.08 -3.07)"/></svg>